<svg id="Capa_1" enable-background="new 0 0 512 512" height="30" viewBox="0 0 512 512" width="30" xmlns="http://www.w3.org/2000/svg"><g><g><g><g><circle cx="256" cy="289.185" fill="#eaf6ff" r="182.997"/></g><path d="m256 106.188c-5.051 0-10.052.214-15 .615 94.049 7.632 167.997 86.367 167.997 182.382s-73.948 174.751-167.997 182.383c4.948.402 9.949.615 15 .615 101.067 0 182.997-81.931 182.997-182.998s-81.93-182.997-182.997-182.997z" fill="#d8ecfe"/><path d="m256 106.188c-12.512 0-24.729 1.26-36.535 3.652-1.508 5.715-2.75 14.148.425 22.716 8.267 22.308 36.574 18.818 57.995 40.941 23.259 24.02 6.65 45.444 26.445 59.502 21.083 14.972 45.08-5.665 100.434 3.819 12.179 2.087 22.026 4.972 28.597 7.151-20.128-79.197-91.9-137.781-177.361-137.781z" fill="#7acaa6"/><path d="m249.942 106.299c-1.142.089.073-.135-8.929.506 76.016 6.174 138.889 58.802 160.203 129.455 10.355 1.394 25.905 5.494 32.146 7.71-18.623-74.613-89.603-140.813-183.42-137.671z" fill="#57be92"/><g fill="#7acaa6"><path d="m264.217 288.484c-13.813-8.358-6.283-31.625-18.638-37.437-12.951-6.093-39.762 10.753-47.528 33.727-10.488 31.027 14.131 68.328 34.629 70.495 9.531 1.007 13.612-6.075 28.77-5.539 16.147.571 20.385 8.922 29.358 8.012 24.396-2.474 44.738-69.286 29.682-80.389-11.285-8.32-38.383 21.956-56.273 11.131z"/><path d="m170.223 245.592c-3.378-26.2-39.744-43.191-69.436-53.366-17.6 28.114-27.785 61.345-27.785 96.959 0 71.043 40.484 132.631 99.64 162.953 34.693-18.642 40.749-32.376 40.15-41.329-2.097-31.342-84.707-36.323-91.167-74.535-5.636-33.344 53.135-55.499 48.598-90.682z"/><path d="m366.215 385.213c-2.796-14.225-.598-22.445-4.742-24.356-8.573-3.953-20.633 30.009-50.305 37.382-21.72 5.398-34.201-8.093-42.921.462-11.676 11.454 1.095 45.067 4.866 54.992 2.715 7.145 5.607 12.852 7.79 16.797 39.156-5.328 74.374-23.032 101.577-49.055-5.734-7.808-13.081-20.022-16.265-36.222z"/></g><path d="m370.926 400.926c-23.239 30.093-55.646 52.738-93.034 63.774 1.082 2.21 2.109 4.159 3.011 5.79 37.266-5.206 72.558-21.365 101.576-49.055-3.698-5.037-8.062-11.918-11.553-20.509z" fill="#57be92"/></g><g><path d="m504.5 92.27c0-46.991-38.432-85.006-85.578-84.327-45.668.657-82.804 38.11-83.092 83.782-.162 25.577 11.066 48.533 28.907 64.104 1.883 1.643 1.612 4.642-.539 5.915l-15.891 9.402c-2.569 1.52-1.491 5.459 1.494 5.458l71.96-.018c45.84-.852 82.739-38.272 82.739-84.316z" fill="#8795de"/></g><path d="m442.089 10.839c19.721 15.437 32.411 39.445 32.411 66.431 0 46.044-36.899 83.464-82.739 84.316l-27.368.007c-.069.047-.122.107-.196.151l-15.891 9.402c-2.569 1.52-1.491 5.459 1.494 5.458l71.96-.018c45.84-.852 82.739-38.272 82.739-84.316.001-38.99-26.468-71.776-62.41-81.431z" fill="#6c7fd8"/><g><path d="m7.5 420.598c0 46.991 38.432 85.006 85.578 84.327 45.669-.657 82.804-38.11 83.092-83.782.162-25.577-11.066-48.533-28.907-64.104-1.883-1.643-1.612-4.642.539-5.915l15.891-9.402c2.569-1.52 1.491-5.459-1.494-5.458l-71.96.018c-45.84.852-82.739 38.272-82.739 84.316z" fill="#8795de"/></g><path d="m147.263 357.039c-1.883-1.643-1.612-4.642.539-5.914l15.891-9.402c2.569-1.52 1.491-5.459-1.494-5.458l-29.912.007c2.915.079 3.949 3.946 1.406 5.451l-15.891 9.402c-2.151 1.272-2.422 4.271-.539 5.914 17.841 15.571 29.069 38.526 28.907 64.104-.259 40.998-30.215 75.353-69.375 82.435 5.275.95 10.715 1.427 16.283 1.347 45.668-.657 82.804-38.11 83.092-83.782.163-25.577-11.066-48.533-28.907-64.104z" fill="#6c7fd8"/><g><path d="m7.5 92.27c0-46.99 38.432-85.005 85.578-84.327 45.669.657 82.804 38.11 83.092 83.782.162 25.577-11.066 48.533-28.907 64.104-1.883 1.643-1.612 4.642.539 5.915l15.891 9.402c2.569 1.52 1.491 5.459-1.494 5.458l-71.96-.018c-45.84-.852-82.739-38.272-82.739-84.316z" fill="#8795de"/></g><path d="m163.694 171.146-15.891-9.402c-2.151-1.273-2.422-4.271-.539-5.915 17.841-15.57 29.069-38.526 28.907-64.104-.289-45.672-37.424-83.125-83.093-83.782-5.567-.08-11.007.397-16.282 1.347 39.16 7.082 69.116 41.437 69.375 82.435.162 25.578-11.067 48.533-28.907 64.104-1.883 1.643-1.612 4.642.539 5.915l15.891 9.402c2.543 1.504 1.509 5.372-1.406 5.451l29.912.007c2.984.001 4.063-3.938 1.494-5.458z" fill="#6c7fd8"/><g><path d="m504.5 420.598c0 46.991-38.432 85.006-85.578 84.327-45.668-.657-82.804-38.11-83.092-83.782-.162-25.577 11.066-48.533 28.907-64.104 1.883-1.643 1.612-4.642-.539-5.915l-15.891-9.402c-2.569-1.52-1.491-5.459 1.494-5.458l71.96.018c45.84.852 82.739 38.272 82.739 84.316z" fill="#8795de"/></g><path d="m442.073 339.151c19.733 15.435 32.427 39.453 32.427 66.447 0 46.991-38.432 85.006-85.578 84.327-7.061-.102-13.916-1.087-20.464-2.843 13.998 10.928 31.488 17.57 50.464 17.843 47.147.678 85.578-37.336 85.578-84.327 0-38.998-26.474-71.801-62.427-81.447z" fill="#6c7fd8"/></g><path d="m121.836 84.769c-4.142 0-7.5 3.358-7.5 7.5s3.358 7.5 7.5 7.5 7.5-3.358 7.5-7.5-3.358-7.5-7.5-7.5zm-30 0c-4.142 0-7.5 3.358-7.5 7.5s3.358 7.5 7.5 7.5 7.5-3.358 7.5-7.5-3.358-7.5-7.5-7.5zm358.328 15c4.142 0 7.5-3.358 7.5-7.5s-3.358-7.5-7.5-7.5-7.5 3.358-7.5 7.5 3.358 7.5 7.5 7.5zm-60-15c-4.142 0-7.5 3.358-7.5 7.5s3.358 7.5 7.5 7.5 7.5-3.358 7.5-7.5-3.358-7.5-7.5-7.5zm-328.328 0c-4.142 0-7.5 3.358-7.5 7.5s3.358 7.5 7.5 7.5 7.5-3.358 7.5-7.5-3.358-7.5-7.5-7.5zm365.828 7.5c0-4.142-3.358-7.5-7.5-7.5s-7.5 3.358-7.5 7.5 3.358 7.5 7.5 7.5 7.5-3.358 7.5-7.5zm-365.828 320.83c-4.142 0-7.5 3.358-7.5 7.5s3.358 7.5 7.5 7.5 7.5-3.358 7.5-7.5-3.358-7.5-7.5-7.5zm358.328 0c-4.142 0-7.5 3.358-7.5 7.5s3.358 7.5 7.5 7.5 7.5-3.358 7.5-7.5-3.358-7.5-7.5-7.5zm30 0c-4.142 0-7.5 3.358-7.5 7.5s3.358 7.5 7.5 7.5 7.5-3.358 7.5-7.5-3.358-7.5-7.5-7.5zm-8.367-81.752c3.11-13.767 4.703-27.91 4.703-42.163 0-37.92-10.879-73.955-31.585-105.096l6.849-.002c.046 0 .092 0 .137-.001 24.166-.449 46.813-10.199 63.77-27.453 16.978-17.277 26.329-40.134 26.329-64.361 0-24.78-9.72-48.009-27.37-65.406-17.646-17.395-41.002-26.774-65.816-26.421-49.58.713-90.171 41.641-90.485 91.234-.158 24.998 9.847 48.85 27.616 66.234l-11.458 6.779c-4.099 2.425-6.007 7.141-4.75 11.734 1.258 4.594 5.303 7.68 10.066 7.679l46.762-.011c11.268 15.024 19.908 31.449 25.78 48.834-5.397-1.388-10.848-2.564-16.313-3.5-28.47-4.878-49.448-2.041-64.766.031-16.436 2.222-24.686 3.041-32.592-2.573-6.594-4.683-7.522-10.047-8.712-19.91-1.319-10.923-2.96-24.519-16.688-38.694-10.771-11.124-22.762-16.253-33.34-20.778-12.527-5.358-19.773-8.815-23.01-17.552-1.497-4.041-1.868-8.612-1.137-13.627 9.948-1.734 20.059-2.639 30.214-2.639 16.823 0 33.459 2.375 49.445 7.06 3.976 1.168 8.142-1.113 9.307-5.088s-1.113-8.142-5.088-9.307c-17.357-5.086-35.412-7.666-53.664-7.666-25.591 0-51.481 5.326-74.944 15.337 1.766-7.243 2.663-14.739 2.615-22.344-.314-49.593-40.905-90.521-90.485-91.234-24.792-.366-48.17 9.027-65.817 26.421-17.65 17.398-27.37 40.626-27.37 65.407 0 24.227 9.351 47.084 26.33 64.362 18.923 19.255 43.935 27.725 70.755 27.456-20.706 31.14-31.585 67.176-31.585 105.095 0 14.253 1.594 28.396 4.703 42.163-16.53 3.977-31.677 12.479-43.873 24.889-16.979 17.277-26.33 40.135-26.33 64.362 0 24.78 9.72 48.009 27.37 65.406 43.025 42.411 120.074 30.068 146.719-24.817 25.429 12.107 53.572 18.497 81.911 18.497 28.239 0 56.481-6.369 81.923-18.475 25.792 52.797 101.894 68.969 146.708 24.795 17.649-17.397 27.369-40.626 27.369-65.406 0-24.227-9.351-47.084-26.33-64.362-12.196-12.409-27.343-20.911-43.873-24.889zm-75.304-162.247c3.707-2 6.555-5.129 6.955-9.485.327-3.558-1.086-7.086-3.78-9.437-16.88-14.732-26.481-36.02-26.339-58.406.263-41.492 34.222-75.733 75.701-76.331.381-.005.76-.008 1.141-.008 20.324 0 39.438 7.827 53.93 22.113 14.766 14.557 22.899 33.992 22.899 54.725 0 20.27-7.823 39.393-22.029 53.848-14.172 14.42-33.092 22.576-53.282 22.968zm-276.182-.013c-20.19-.393-39.11-8.548-53.282-22.968-14.206-14.455-22.029-33.579-22.029-53.848 0-20.733 8.133-40.167 22.9-54.724 14.763-14.553 34.321-22.401 55.07-22.105 41.479.597 75.438 34.839 75.701 76.331.142 22.386-9.459 43.674-26.339 58.406-2.694 2.351-4.107 5.879-3.78 9.437.355 3.867 3.205 7.939 6.955 9.485zm2.659 328.339c-20.761.277-40.307-7.552-55.07-22.105-14.767-14.556-22.9-33.99-22.9-54.723 0-20.27 7.823-39.393 22.029-53.848 14.172-14.42 33.092-22.576 53.282-22.968l55.196-.014c-3.807 1.704-6.574 5.336-6.955 9.485-.327 3.558 1.086 7.086 3.78 9.437 4.76 4.155 8.941 8.831 12.489 13.906.091.141.182.281.283.416 8.848 12.837 13.668 28.182 13.568 44.084-.264 41.492-34.223 75.733-75.702 76.33zm84.925-108.872c14.337 6.825 26.832 14.067 27.412 22.762.302 4.509-2.703 13.474-23.319 26.681 1.065-5.454 1.646-11.071 1.683-16.807.071-11.275-1.932-22.315-5.776-32.636zm154.437 58.699c-14.925 7.203-30.888 12.243-47.28 14.989-1.825-3.663-3.485-7.417-4.937-11.227-13.72-36.136-8.531-45.076-6.611-46.958 1.183-1.162 2.809-1.071 9.667.541 7.266 1.708 17.216 4.047 29.809.915 4.02-1 6.468-5.068 5.469-9.088-.999-4.021-5.07-6.466-9.088-5.469-9.072 2.255-16.344.547-22.758-.96-7.634-1.795-16.287-3.829-23.603 3.353-13.602 13.334-4.75 42.336 3.102 63.016.999 2.622 2.099 5.219 3.261 7.789-4.442.34-8.898.531-13.362.531-23.047 0-45.953-4.574-67.116-13.311 22.007-13.89 32.306-27.391 31.39-41.058-1.305-19.568-22.981-29.461-45.93-39.934-2.721-1.242-5.507-2.521-8.256-3.81-2.997-4.117-6.345-8.007-10.032-11.615l11.458-6.779c4.099-2.425 6.007-7.141 4.75-11.734-1.258-4.594-5.303-7.68-10.066-7.679-6.586.001-71.732-.803-77.15.261-3.013-12.991-4.547-26.362-4.547-39.841 0-31.355 8.075-61.308 23.518-87.857 36.369 13.269 56.658 28.85 58.764 45.227 1.823 14.123-10.174 26.732-22.876 40.082-5.562 5.845-11.313 11.89-15.932 18.204-2.445 3.343-1.718 8.036 1.625 10.481 1.335.977 2.885 1.447 4.422 1.447 2.311 0 4.59-1.064 6.059-3.072 4.048-5.533 9.219-10.967 14.693-16.721 13.885-14.593 29.622-31.133 26.886-52.338-2.872-22.329-24.282-40.773-65.345-56.239 1.021-1.448 2.07-2.881 3.135-4.306l46.749.011h.002c4.762 0 8.806-3.086 10.063-7.679s-.651-9.309-4.75-11.734l-11.458-6.779c7.113-6.959 12.977-14.957 17.448-23.647 11.713-6.245 24.118-11.123 36.934-14.557-.172 5.454.63 10.625 2.42 15.454 5.635 15.206 18.62 20.76 31.176 26.131 9.731 4.162 19.793 8.466 28.464 17.421 10.216 10.55 11.36 20.026 12.571 30.058 1.222 10.124 2.607 21.598 14.919 30.342 13.084 9.292 27.081 7.4 43.288 5.208 15.155-2.049 34.018-4.601 60.223-.111 7.953 1.363 15.878 3.259 23.618 5.641 2.901 12.75 4.384 25.913 4.384 39.333 0 13.479-1.534 26.85-4.547 39.841-1.677-.122-3.36-.211-5.053-.242-.045-.001-.091-.001-.137-.001l-71.961-.018c-.001 0-.001 0-.002 0-4.762 0-8.806 3.086-10.063 7.679s.651 9.309 4.75 11.734l11.458 6.779c-17.768 17.385-27.773 41.237-27.616 66.234.055 9.039 1.456 17.789 4.001 26.062zm141.768 28.068c-14.764 14.553-34.328 22.396-55.07 22.105-41.479-.597-75.438-34.839-75.701-76.331-.142-22.386 9.459-43.674 26.339-58.406 2.694-2.351 4.107-5.879 3.78-9.437-.39-4.248-3.166-7.661-6.955-9.485l55.196.014c20.19.393 39.11 8.548 53.282 22.968 14.206 14.456 22.029 33.579 22.029 53.849 0 20.733-8.133 40.167-22.9 54.723zm-83.936-62.222c-4.142 0-7.5 3.358-7.5 7.5s3.358 7.5 7.5 7.5 7.5-3.358 7.5-7.5-3.358-7.5-7.5-7.5zm-268.328 0c-4.142 0-7.5 3.358-7.5 7.5s3.358 7.5 7.5 7.5 7.5-3.358 7.5-7.5-3.358-7.5-7.5-7.5zm203.104-141.781c-8.858-6.533-20.006-.929-30.786 4.491-9.318 4.685-19.879 9.993-26.055 6.259-3.883-2.349-5.03-7.266-6.458-15.083-1.484-8.125-3.331-18.236-12.87-22.724-6.402-3.011-14.512-2.592-23.454 1.216-12.733 5.421-28.299 18.933-34.372 36.896-5.914 17.495-2.614 38.603 8.828 56.463 8.82 13.767 20.827 22.699 32.118 23.892 6.205.656 10.791-1.124 14.836-2.695 4.028-1.564 7.834-3.042 14.457-2.807 7.124.252 11.295 2.305 15.33 4.29 26.83 13.201 45.653-17.847 53.143-45.21 2.842-10.385 8.072-35.557-4.717-44.988zm-9.751 41.027c-5.493 20.069-16.771 37.087-25.139 37.936-1.903.195-3.494-.542-6.914-2.225-4.679-2.302-11.087-5.456-21.421-5.821-8.531-.302-16.017 2.106-20.416 3.814-3.54 1.375-5.351 2.024-7.83 1.761-6.601-.698-14.869-7.397-21.064-17.067-9.008-14.06-11.717-30.347-7.249-43.567 4.561-13.493 16.695-23.92 26.038-27.899 5.519-2.35 9.401-2.287 11.192-1.443 2.377 1.118 3.325 5.417 4.5 11.846 1.563 8.558 3.508 19.208 13.449 25.222 13.269 8.028 28.399.421 40.557-5.691 4.547-2.286 13.011-6.536 15.146-5.821 1.988 1.467 3.854 11.774-.849 28.955zm-223.353 100.754c-4.142 0-7.5 3.358-7.5 7.5s3.358 7.5 7.5 7.5 7.5-3.358 7.5-7.5-3.358-7.5-7.5-7.5z"/></g></svg>