<svg height="40" viewBox="0 0 64 64" width="40" xmlns="http://www.w3.org/2000/svg"><g fill="#bddbff"><path d="m61 40v10h-14v-2.42a6.166 6.166 0 0 0 -.3-1.88l.3.3 2-2-1-9 2-4 6.58 1.79a6.013 6.013 0 0 1 4.42 5.79z"/><path d="m56 15v3h-.29a5.374 5.374 0 0 1 -.7-.04 5.986 5.986 0 0 1 -4.67-3.28l-.34-.68-1.66 1.66a7.985 7.985 0 0 1 -5.65 2.34h-3.21a8.9 8.9 0 0 0 -1.48-1.7v-1.3a9 9 0 0 1 18 0z"/><path d="m44 31 2 4-.91 8.19a6.09 6.09 0 0 0 -2.51-1.4l-7.58-2.79v-3.58a8 8 0 0 0 3.64-2.96z"/><path d="m29 35.42v3.58l-7.58 2.79a6.09 6.09 0 0 0 -2.51 1.4l-.91-8.19 2-4 5.36 1.46a8.7 8.7 0 0 0 .98 1.2 8.124 8.124 0 0 0 2.66 1.76z"/><path d="m26 15v1.3a8.918 8.918 0 0 0 -1.41 1.59 5.975 5.975 0 0 1 -4.25-3.21l-.34-.68-1.66 1.66a7.985 7.985 0 0 1 -5.65 2.34h-4.69v-3a9 9 0 0 1 18 0z"/><path d="m39.48 18a9 9 0 0 0 -16.48 5v3h4.69a7.985 7.985 0 0 0 5.65-2.34l1.66-1.66.34.68a5.986 5.986 0 0 0 4.67 3.28 5.374 5.374 0 0 0 .7.04h.29v-3a8.94 8.94 0 0 0 -1.52-5z"/><path d="m46.7 45.7a6.016 6.016 0 0 0 -4.12-3.91l-7.58-2.79-2 4 .78 7 .22 2-2 2-2-2 .22-2 .78-7-2-4-7.58 2.79a6.016 6.016 0 0 0 -4.12 3.91 6.166 6.166 0 0 0 -.3 1.88v10.42h30v-10.42a6.166 6.166 0 0 0 -.3-1.88z"/><path d="m17 46 .3-.3a6.166 6.166 0 0 0 -.3 1.88v2.42h-14v-11.42a6.013 6.013 0 0 1 4.42-5.79l6.58-1.79 2 4-1 9z"/></g><path d="m32 31a2 2 0 0 1 -2-2h-2a4 4 0 0 0 8 0h-2a2 2 0 0 1 -2 2z" fill="#3d9ae2"/><path d="m21 21h-2a2 2 0 0 1 -4 0h-2a4 4 0 0 0 8 0z" fill="#3d9ae2"/><path d="m47 23a2 2 0 0 1 -2-2h-2a4 4 0 0 0 8 0h-2a2 2 0 0 1 -2 2z" fill="#3d9ae2"/><path d="m56.843 31.825-5.843-1.589v-2.186a9 9 0 0 0 5-8.05v-1a1 1 0 0 0 1-1v-3a9.994 9.994 0 0 0 -19.968-.628 9.914 9.914 0 0 0 -10.064 0 9.994 9.994 0 0 0 -19.968.628v3a1 1 0 0 0 1 1v1a8.986 8.986 0 0 0 2.635 6.37 9.087 9.087 0 0 0 2.365 1.687v2.179l-5.846 1.59a7.031 7.031 0 0 0 -5.154 6.754v11.42a1 1 0 0 0 1 1h13v7a1 1 0 0 0 1 1h30a1 1 0 0 0 1-1v-7h13a1 1 0 0 0 1-1v-11.42a7.032 7.032 0 0 0 -5.157-6.755zm-8.89 11.808-.741.741a7.061 7.061 0 0 0 -1.079-1.523l.767-6.851h.21zm-15 8-.953.953-.953-.953.853-7.633h.21zm-10.244-24.692a.978.978 0 0 0 .291.059v1a8.936 8.936 0 0 0 .494 2.915l-2.494-.679v-2.186a8.948 8.948 0 0 0 1.709-1.109zm24.673 7.059h-.764l-1-2h2.764zm-6.382-6v-1a.953.953 0 0 0 .273-.055 9.056 9.056 0 0 0 1.727 1.112v2.179l-2.494.679a8.936 8.936 0 0 0 .494-2.915zm-2 0a7 7 0 0 1 -14 0v-1h2.687a8.939 8.939 0 0 0 6.363-2.636l.7-.7a6.943 6.943 0 0 0 4.25 3.123zm-21.618 6h-.764l-1-2h2.764zm-.482 2h.21l.763 6.862a7.065 7.065 0 0 0 -1.078 1.514l-.743-.743zm2.825 5.422-.694-6.238 1.5-3 4.241 1.155a9.045 9.045 0 0 0 3.228 2.711v2.25l-6.846 2.523a6.98 6.98 0 0 0 -1.434.599zm12.657.578h-.764l-1-2h2.764zm1.618-4h-4v-1.232a8.737 8.737 0 0 0 4 0zm2-1.95a9.045 9.045 0 0 0 3.231-2.715l4.241-1.155 1.5 3-.692 6.227a6.623 6.623 0 0 0 -1.357-.559l-6.923-2.548zm13-6.05h-4v-1.231a8.755 8.755 0 0 0 4 0zm-2-3a6.992 6.992 0 0 1 -4.952-2.045c-.017-.017-.031-.036-.048-.053v-1.902a9.929 9.929 0 0 0 -.841-4h1.531a8.93 8.93 0 0 0 6.357-2.633l.7-.7a6.943 6.943 0 0 0 4.253 3.119v1.214a7.008 7.008 0 0 1 -7 7zm-8-12a8 8 0 0 1 16 0v1.95a4.971 4.971 0 0 1 -3.766-2.717l-.339-.68a1 1 0 0 0 -1.6-.26l-1.66 1.66a6.947 6.947 0 0 1 -4.945 2.047h-2.709a10.048 10.048 0 0 0 -.981-1.129zm1 8v1.951a4.968 4.968 0 0 1 -3.764-2.715l-.341-.683a1 1 0 0 0 -1.6-.26l-1.659 1.657a6.954 6.954 0 0 1 -4.949 2.05h-3.687v-2a8 8 0 0 1 16 0zm-31-8a8 8 0 0 1 16 0v.871a10 10 0 0 0 -.8.892 4.946 4.946 0 0 1 -2.962-2.53l-.339-.68a1 1 0 0 0 -1.6-.26l-1.66 1.66a6.947 6.947 0 0 1 -4.949 2.047h-3.69zm1 5v-1h2.69a8.93 8.93 0 0 0 6.357-2.633l.7-.7a7.038 7.038 0 0 0 3.343 2.816 9.923 9.923 0 0 0 -1.09 4.517v1.884a6.989 6.989 0 0 1 -12-4.884zm7 9a8.955 8.955 0 0 0 2-.23v1.23h-4v-1.231a9.053 9.053 0 0 0 2 .231zm-8 20v-9h-2v9h-3v-10.42a5.024 5.024 0 0 1 3.683-4.825l5.789-1.575 1.5 3-.968 8.706a1 1 0 0 0 .287.817l1.8 1.8a6.974 6.974 0 0 0 -.091 1.077v1.42zm37 8h-3v-9h-2v9h-18v-9h-2v9h-3v-9.42a5.057 5.057 0 0 1 3.765-4.851l6.741-2.482 1.468 2.937-.968 8.706a1 1 0 0 0 .287.817l2 2a1 1 0 0 0 1.414 0l2-2a1 1 0 0 0 .287-.817l-.968-8.706 1.469-2.937 6.819 2.507a5.026 5.026 0 0 1 3.686 4.826zm14-8h-3v-9h-2v9h-7v-1.42a6.974 6.974 0 0 0 -.09-1.076l1.8-1.8a1 1 0 0 0 .287-.817l-.968-8.706 1.5-3 5.786 1.574a5.026 5.026 0 0 1 3.685 4.825z" fill="#3d9ae2"/></svg>